# xmcd
#
# Track frame offsets:
#	150
#	11750
#	22180
#	32770
#	42862
#	54160
#	63990
#	74235
#	85432
#	96932
#	107997
#	119045
#	129322
#	141097
#
# Disc length: 2030 seconds
#
# Revision: 1
# Processed by: cddbd v1.5.1PL0 Copyright (c) Steve Scherf et al.
# Submitted via: audiograbber 1.82.02
#
DISCID=cf07ec0e
DTITLE=Patsy Cline - Patsy Cline
DYEAR=1995
DGENRE=Country
TTITLE0=Walkin' After Midnight
TTITLE1=Lovesick Blues
TTITLE2=Honkey Tonk Merry Go Round
TTITLE3=Three Cigaretes In An Ashtray
TTITLE4=Lonely Street
TTITLE5=Turn The Cards Slowly
TTITLE6=Walking Dream
TTITLE7=Cry not For Me
TTITLE8=In Care Of The Blues
TTITLE9=Don't Ever Leave
TTITLE10=A Stranger In My Arms
TTITLE11=Too Many Secrets
TTITLE12=Today, Tomorrow ANd Forever
TTITLE13=That Wonderful Someone
EXTD=
EXTT0=
EXTT1=
EXTT2=
EXTT3=
EXTT4=
EXTT5=
EXTT6=
EXTT7=
EXTT8=
EXTT9=
EXTT10=
EXTT11=
EXTT12=
EXTT13=
PLAYORDER=
